<svg xmlns="http://www.w3.org/2000/svg" width="38.745" height="37.073" viewBox="0 0 38.745 37.073">
  <path id="Path_336" data-name="Path 336" d="M16.215,6.586a10.528,10.528,0,0,1,5.69-4.434c2.781-.835,5.458-.6,7.62,1.538s2.5,4.834,1.811,7.668a20.9,20.9,0,0,1-4.4,7.916A68.5,68.5,0,0,1,16.379,29.7a3.539,3.539,0,0,1-.311.186c-1.577-1.4-3.208-2.788-4.768-4.249a50.225,50.225,0,0,1-7.9-9.1A15.086,15.086,0,0,1,.784,10.462C.2,6.376,2.124,2.581,6.456,1.851A8.936,8.936,0,0,1,14.241,4.42C14.934,5.058,15.518,5.815,16.215,6.586Z" transform="translate(-1.225 9.225) rotate(-20)" fill="#e7000e"/>
</svg>
