<svg xmlns="http://www.w3.org/2000/svg" xmlns:xlink="http://www.w3.org/1999/xlink" width="90" height="90" viewBox="0 0 90 90">
  <defs>
    <filter id="Rectangle_2060" x="0" y="0" width="90" height="90" filterUnits="userSpaceOnUse">
      <feOffset dx="4" dy="12" input="SourceAlpha"/>
      <feGaussianBlur stdDeviation="8" result="blur"/>
      <feFlood flood-color="#e7000e" flood-opacity="0.341"/>
      <feComposite operator="in" in2="blur"/>
      <feComposite in="SourceGraphic"/>
    </filter>
  </defs>
  <g id="Group_8277" data-name="Group 8277" transform="translate(-133 -540)">
    <g transform="matrix(1, 0, 0, 1, 133, 540)" filter="url(#Rectangle_2060)">
      <rect id="Rectangle_2060-2" data-name="Rectangle 2060" width="42" height="42" rx="21" transform="translate(20 12)" fill="#fff"/>
    </g>
    <path id="Path_334" data-name="Path 334" d="M8.023,4.012a4.975,4.975,0,0,1,2.689-2.1,3.407,3.407,0,0,1,3.6.727,3.587,3.587,0,0,1,.856,3.624,9.875,9.875,0,0,1-2.079,3.741A32.372,32.372,0,0,1,8.1,14.934a1.672,1.672,0,0,1-.147.088C7.209,14.36,6.438,13.7,5.7,13.014a23.736,23.736,0,0,1-3.734-4.3A7.13,7.13,0,0,1,.731,5.844a3.342,3.342,0,0,1,2.68-4.069A4.223,4.223,0,0,1,7.09,2.988C7.418,3.29,7.694,3.647,8.023,4.012Z" transform="translate(166.407 564.756)" fill="#e7000e"/>
  </g>
</svg>
