<svg id="Group_8268" data-name="Group 8268" xmlns="http://www.w3.org/2000/svg" width="77.661" height="68.437" viewBox="0 0 77.661 68.437">
  <g id="Group_8266" data-name="Group 8266" transform="translate(0 10.91)">
    <path id="Path_393" data-name="Path 393" d="M628.437,342.923a25.952,25.952,0,0,0-25.186,1.176,24.536,24.536,0,0,0-3.613,2.684,20.035,20.035,0,0,1,3.592,2.3,20.679,20.679,0,0,1,3.617-2.338,21.636,21.636,0,0,1,19.672-.142c10.039,5.224,14.335,18.367,9.222,28.194-1.487,2.857-4.534,5.466-7,7.221,0,0-11.305,6.552-19.287,9.733-2.722,1.085-5.056,1.776-6.426,1.681H603c-1.37.108-3.7-.562-6.409-1.616,1.124,3.072,2.33,4.378,3.743,5.112a5.821,5.821,0,0,0,2.7.665c2.774.065,7.161-1.309,15.653-5.519,6.206-3.072,11.841-6.335,12.079-6.469.112-.069.22-.138.328-.216,2.723-1.94,6.37-5.026,8.284-8.7C645.5,364.924,640.391,349.142,628.437,342.923Z" transform="translate(-564.319 -340.071)" fill="#fff"/>
    <path id="Path_394" data-name="Path 394" d="M579.18,393.062h-.022c-1.37.108-3.7-.562-6.409-1.617-7.951-3.1-19.2-9.542-19.2-9.542-2.446-1.733-5.471-4.313-6.927-7.157-5.018-9.78-.592-22.961,9.495-28.285a21.639,21.639,0,0,1,19.672-.052,20.033,20.033,0,0,1,3.592,2.3A20.683,20.683,0,0,1,583,346.375a23.505,23.505,0,0,0-3.6-2.649,25.854,25.854,0,0,0-25.165-.925c-12.014,6.335-17.282,22.166-11.271,33.877,1.876,3.656,5.493,6.7,8.2,8.617a3.291,3.291,0,0,0,.328.212c.233.134,5.839,3.336,12.014,6.353,8.531,4.166,12.909,5.484,15.679,5.363a5.963,5.963,0,0,0,2.628-.691c1.417-.748,2.636-2.066,3.79-5.151C582.884,392.466,580.55,393.157,579.18,393.062Z" transform="translate(-540.473 -339.97)" fill="#fff"/>
  </g>
  <g id="Group_8267" data-name="Group 8267" transform="translate(13.238)">
    <circle id="Ellipse_418" data-name="Ellipse 418" cx="4.601" cy="4.601" r="4.601" transform="translate(41.983)" fill="#fff"/>
    <circle id="Ellipse_419" data-name="Ellipse 419" cx="4.601" cy="4.601" r="4.601" transform="translate(0)" fill="#fff"/>
  </g>
</svg>
