<svg xmlns="http://www.w3.org/2000/svg" width="72.514" height="68.956" viewBox="0 0 72.514 68.956">
  <path id="Path_337" data-name="Path 337" d="M30.431,11.054c2.76-4.058,6.262-7.1,10.9-8.492,5.326-1.6,10.453-1.143,14.594,2.946s4.794,9.258,3.468,14.686c-1.415,5.793-4.786,10.584-8.427,15.161A131.193,131.193,0,0,1,30.745,55.317a6.778,6.778,0,0,1-.595.356c-3.02-2.684-6.144-5.339-9.132-8.139A96.2,96.2,0,0,1,5.886,30.11c-2.343-3.586-4.4-7.334-5.009-11.633C-.237,10.65,3.443,3.382,11.739,1.985c5.746-.97,10.7,1.041,14.912,4.92C27.977,8.126,29.1,9.576,30.431,11.054Z" transform="matrix(0.956, 0.292, -0.292, 0.956, 15.624, -1.83)" fill="#e7000e"/>
</svg>
